# xmcd CD database file
# 
# Track frame offsets:
# 	150
# 	20739
# 	42623
# 	59790
# 	78160
# 	105673
# 	122737
# 	145333
# 	162084
# 	178631
# 
# Disc length: 2624 seconds
# 
# Submitted via: Nero 5.5.9.0
# 
# Revision: 0
# Processed by: cddbd v1.4PL0 Copyright (c) Steve Scherf et al.
#
DISCID=8b0a3e0a
DTITLE=Rusty Wier - Are We There Yet?
DYEAR=1900
DGENRE=
TTITLE0=Pirogue Joe
TTITLE1=Cowboy Who Loves To Sing The Blues
TTITLE2=My Side Of The Story
TTITLE3=Getaway Holiday
TTITLE4=Fannin' The Fire
TTITLE5=Down On The Bayou
TTITLE6=Mr. Right
TTITLE7=Quervo's Gold
TTITLE8=Dark Cloud
TTITLE9=Hot Spot
EXTD=
EXTT0=
EXTT1=
EXTT2=
EXTT3=
EXTT4=
EXTT5=
EXTT6=
EXTT7=
EXTT8=
EXTT9=
PLAYORDER=
